<?xml version="1.0" standalone="no"?>
<!DOCTYPE svg PUBLIC "-//W3C//DTD SVG 1.0//EN" "http://www.w3.org/TR/2001/REC-SVG-20010904/DTD/svg10.dtd">
<svg version="1.1" xmlns="http://www.w3.org/2000/svg" xmlns:xlink="http://www.w3.org/1999/xlink" x="0px" y="0px" width="2500" height="1623.503" viewBox="0 0 2500 1623.503" enable-background="new 0 0 2500 1623.503" xml:space="preserve" xmlns:inkscape ="http://www.inkscape.org/namespaces/inkscape" >
<desc>CopyRight:SVG Design Editor;
configurationStart;Unit=smInches;Dpi=96;Division=4;Grid=True;Zoom=0.5;CanvasW=2500;CanvasH=1623.503;configurationEnd;</desc>



<g isVisble = "True" inkscape:label = "clari Default Layer" inkscape:groupmode = "layer" ><g id="group_1">
<g id="group_2">
<g id="group_3">
<path style="fill:#FFFFFF;stroke:none; stroke-width:1" d="m1281.33,1069.71c-0.38,-1.9 -0.71,-3.7 -1.12,-5.51c-1.5,-6.77 -2.72,-13.59 -3.62,-20.47c-0.06,-0.51 -0.11,-1.02 -0.2,-1.51c-1.19,-6.15 -2.48,-12.29 -3.56,-18.46c-1.91,-10.85 -3.69,-21.73 -5.52,-32.6c-0.34,-2 -0.75,-4 -1.05,-6.01c-0.12,-0.79 -0.02,-1.62 -0.02,-2.53c5.87,-2.66 12.08,-2.4 18.17,-3.96c0.5,1 1.08,1.83 1.33,2.74c0.95,3.6 2.01,7.18 2.01,10.98c0.01,1.32 0.57,2.64 0.81,3.97c0.47,2.5 0.9,5 1.3,7.5c0.15,0.83 0.02,1.74 0.28,2.53c1.23,3.73 1.31,7.67 2.12,11.45c2.11,9.78 3.27,19.72 5.39,29.49c0.97,4.47 1.64,9.01 2.44,13.52c0.41,2.3 0.38,4.34 -2.16,5.62c-1.57,0.79 -1.67,2.39 -1.38,4.01c0.93,5.17 1.85,10.33 2.75,15.51c1.34,7.69 2.65,15.38 3.98,23.06c0.98,5.68 1.98,11.36 2.97,17.04c1.33,7.68 2.6,15.37 4,23.04c1.09,5.99 2.35,11.95 3.48,17.94c0.25,1.34 0.29,2.7 0.5,4.04c0.23,1.5 0.52,2.99 0.84,4.47c0.18,0.83 0.56,1.61 0.7,2.44c0.95,5.84 1.84,11.7 2.8,17.55c0.33,2 0.81,3.99 1.23,5.98c0.18,0.82 0.44,1.64 0.6,2.47c0.67,3.66 1.31,7.33 1.97,10.99c1.02,5.64 0.79,5.99 -4.74,7.15c-0.66,0.14 -1.33,0.28 -2,0.32c-1.76,0.1 -2.94,-0.8 -3.24,-2.56c-0.88,-5.17 -1.66,-10.35 -2.57,-15.52c-1.05,-6.01 -2.21,-12 -3.32,-18c-0.12,-0.66 -0.3,-1.32 -0.41,-1.99c-2.33,-13.54 -4.65,-27.07 -6.99,-40.61c-1.47,-8.51 -2.94,-17.02 -4.44,-25.53c-1.49,-8.34 -3.08,-16.65 -4.51,-24.99c-0.99,-5.84 -1.78,-11.71 -2.67,-17.56c-0.11,-0.67 -0.28,-1.33 -0.4,-1.99c-0.43,-2.29 -1.59,-3.7 -4.14,-3.51c-0.31,0.03 -0.64,-0.19 -1.58,-0.5z" fill-rule = "evenodd" clip-rule = "evenodd" transform = "matrix(1.901298,0,0,1.901299,-1180.731,-723.6636)" vector-effect="non-scaling-stroke" pen = "1.901301,1.901301" />
<path style="fill:#FFFFFF;stroke:none; stroke-width:1" d="m1308.68,970.65c1.72,1.72 2.3,3.52 2.94,5.24c5.05,13.43 10.11,26.86 15.04,40.33c3.67,10.01 7.14,20.11 10.7,30.17c1.48,4.19 1.49,4.19 -1.92,7.6c0.2,0.97 0.3,2.14 0.69,3.22c4.19,11.63 8.44,23.25 12.64,34.87c3.27,9.04 6.48,18.1 9.78,27.12c5.69,15.6 11.43,31.16 17.1,46.75c3.24,8.9 6.36,17.83 9.58,26.74c1.03,2.85 2.28,5.63 3.35,8.47c0.65,1.74 0.02,2.99 -1.71,3.59c-1.44,0.49 -2.89,0.96 -4.34,1.42c-2.12,0.67 -3.22,0.2 -3.99,-1.83c-1.36,-3.64 -2.71,-7.29 -4.01,-10.96c-3.38,-9.59 -6.62,-19.23 -10.11,-28.78c-3.19,-8.72 -6.72,-17.31 -9.93,-26.03c-3.95,-10.78 -7.69,-21.64 -11.59,-32.44c-4.32,-11.95 -8.73,-23.86 -13.09,-35.8c-0.98,-2.69 -1.81,-5.44 -2.81,-8.13c-0.4,-1.1 -0.95,-2.21 -1.69,-3.1c-0.45,-0.54 -1.46,-1.09 -2.08,-0.96c-2.43,0.48 -3.51,-0.97 -4.19,-2.79c-1.7,-4.58 -3.25,-9.22 -4.89,-13.83c-1.64,-4.61 -3.32,-9.21 -4.99,-13.82c-4.28,-11.79 -8.58,-23.57 -12.86,-35.36c-1.16,-3.18 -2.34,-6.35 -3.5,-9.54c-0.34,-0.95 -0.74,-1.9 -0.95,-2.88c-0.56,-2.65 0.07,-3.39 2.78,-4.3c3.69,-1.23 7.31,-2.66 10.96,-3.99c0.94,-0.34 1.92,-0.61 3.08,-0.97z" fill-rule = "evenodd" clip-rule = "evenodd" transform = "matrix(1.901298,0,0,1.901298,-1180.731,-723.6635)" vector-effect="non-scaling-stroke" pen = "1.9013,1.9013" />
<path style="fill:#FFFFFF;stroke:none; stroke-width:1" d="m1331.54,958.26c0.95,1.16 1.8,1.96 2.35,2.93c3.76,6.44 7.44,12.93 11.18,19.38c6.38,10.98 12.8,21.93 19.16,32.92c3.31,5.72 6.51,11.5 9.79,17.25c0.85,1.5 0.94,2.88 -0.4,4.13c-1.5,1.42 -1.34,2.79 -0.33,4.51c9.18,15.63 18.32,31.27 27.4,46.95c5.44,9.39 10.71,18.87 16.13,28.27c7.28,12.62 14.65,25.2 21.94,37.81c3.73,6.45 7.39,12.95 11.07,19.43c0.33,0.59 0.75,1.14 0.97,1.77c0.35,1.02 0.26,2.14 -0.7,2.74c-1.57,0.98 -3.24,1.86 -4.94,2.59c-1.49,0.65 -2.56,0.29 -3.53,-1.09c-1.15,-1.67 -2.2,-3.43 -3.21,-5.18c-9.43,-16.27 -18.85,-32.54 -28.25,-48.82c-6.18,-10.71 -12.32,-21.44 -18.49,-32.15c-4.15,-7.19 -8.33,-14.35 -12.47,-21.54c-4.83,-8.37 -9.63,-16.75 -14.43,-25.12c-0.34,-0.59 -0.59,-1.23 -0.97,-1.79c-0.8,-1.2 -1.76,-2.05 -3.39,-1.54c-2.39,0.76 -3.52,-0.35 -4.72,-2.48c-10.48,-18.4 -21.14,-36.7 -31.74,-55.02c-2.38,-4.1 -4.79,-8.19 -7.16,-12.29c-0.42,-0.73 -0.84,-1.48 -1.14,-2.27c-0.4,-1.05 -0.14,-2 0.74,-2.73c0.26,-0.21 0.56,-0.37 0.86,-0.55c4.57,-2.59 9.13,-5.19 14.3,-8.12z" fill-rule = "evenodd" clip-rule = "evenodd" transform = "matrix(1.901299,0,0,1.901298,-1180.731,-723.6633)" vector-effect="non-scaling-stroke" pen = "1.901301,1.901301" />
<path style="fill:#FFFFFF;stroke:none; stroke-width:1" d="m1255.08,1226.49c-3.12,1.31 -5.66,0.9 -8.16,0.71c-1.1,-0.08 -1.81,-0.9 -1.88,-2.06c-0.07,-1.19 -0.05,-2.37 -0.05,-3.56c-0.01,-39.19 -0.02,-78.39 -0.04,-117.58c0,-6.95 0.01,-13.91 0.02,-20.87c0,-1.18 0,-2.35 0,-3.13c-0.51,-0.65 -0.67,-1.05 -0.93,-1.14c-3.21,-1.12 -4.06,-3.34 -4.04,-6.67c0.13,-27.15 0.07,-54.29 0.06,-81.44c0,-1.87 -0.08,-3.73 -0.05,-5.6c0.03,-2.21 0.94,-3.07 3.14,-3.01c3.05,0.08 6.09,0.27 9.14,0.31c1.69,0.02 3.38,-0.27 5.07,-0.28c1.57,-0.02 2.59,0.91 2.65,2.46c0.1,2.54 0.07,5.09 0.06,7.64c-0.04,25.62 -0.08,51.23 -0.12,76.85c0,1.52 0,3.04 0,4.47c-0.24,0.35 -0.37,0.72 -0.62,0.9c-4.2,2.97 -4.22,2.23 -4.22,8.31c-0.01,46.32 -0.02,92.64 -0.03,138.96c0,1.5 0,3.01 0,4.73z" fill-rule = "evenodd" clip-rule = "evenodd" transform = "matrix(1.901299,0,0,1.901298,-1180.732,-723.6633)" vector-effect="non-scaling-stroke" pen = "1.901302,1.9013" />
<path style="fill:#FFFFFF;stroke:none; stroke-width:1" d="m1187.66,1220.33c-3.56,0.77 -6.42,-0.29 -9.17,-1.56c-0.55,-0.26 -1.14,-1.58 -0.94,-2.11c1.89,-4.99 1.75,-10.36 2.92,-15.48c1.43,-6.27 2.25,-12.68 3.35,-19.02c0.2,-1.16 0.47,-2.32 0.68,-3.48c1.23,-7.01 2.45,-14.01 3.68,-21.02c0.73,-4.17 1.42,-8.34 2.19,-12.5c1.18,-6.34 2.5,-12.65 3.64,-18.98c1.08,-6.01 1.97,-12.06 3,-18.07c1.17,-6.86 2.43,-13.7 3.61,-20.55c0.31,-1.82 0.45,-3.66 0.65,-5.32c-0.65,-0.58 -0.98,-1.05 -1.42,-1.21c-2.13,-0.78 -2.65,-2.12 -2.25,-4.38c1.99,-10.84 3.83,-21.71 5.68,-32.58c1.02,-6.01 1.95,-12.04 2.95,-18.06c0.22,-1.33 0.6,-2.64 0.85,-3.97c0.42,-2.17 0.8,-4.34 1.18,-6.5c0.36,-2 0.71,-3.99 1.05,-5.99c1.07,-6.17 2.05,-12.35 3.21,-18.5c0.71,-3.81 1.67,-7.58 2.56,-11.36c0.06,-0.26 0.47,-0.46 0.94,-0.9c5.73,1.16 11.83,1.42 17.92,3.64c0,0.97 0.14,1.96 -0.02,2.89c-1.02,6.03 -2.12,12.03 -3.15,18.05c-1.09,6.35 -2.08,12.72 -3.2,19.07c-1.05,6.01 -2.21,11.99 -3.32,17.99c-0.24,1.34 -0.46,2.68 -0.65,4.02c-0.17,1.18 -0.18,2.38 -0.41,3.54c-1.19,6.15 -2.44,12.3 -3.63,18.45c-0.29,1.49 -0.36,3.03 -0.62,4.53c-0.35,2 -0.78,3.98 -1.19,5.97c-0.38,1.78 -1.28,3.19 -3.1,3.71c-1.9,0.54 -2.68,1.9 -3.07,3.68c-0.18,0.83 -0.52,1.62 -0.66,2.45c-0.96,5.68 -1.88,11.36 -2.8,17.04c-0.17,1.01 -0.25,2.02 -0.44,3.02c-1.1,5.66 -2.29,11.3 -3.3,16.96c-1.64,9.19 -3.15,18.39 -4.73,27.58c-1.41,8.2 -2.87,16.39 -4.25,24.58c-1.16,6.85 -2.16,13.73 -3.39,20.56c-1.05,5.83 -2.38,11.61 -3.5,17.43c-0.38,1.97 -0.54,3.99 -0.84,6.4z" fill-rule = "evenodd" clip-rule = "evenodd" transform = "matrix(1.901299,0,0,1.901298,-1180.731,-723.6633)" vector-effect="non-scaling-stroke" pen = "1.901301,1.901301" />
<path style="fill:#FFFFFF;stroke:none; stroke-width:1" d="m1501.18,1143.04c-1.84,-2 -3.26,-3.44 -4.56,-4.98c-11.56,-13.77 -23.12,-27.54 -34.65,-41.32c-9.02,-10.8 -17.97,-21.66 -27.02,-32.44c-11.12,-13.24 -22.31,-26.42 -33.43,-39.68c-1.72,-2.06 -3.26,-3.77 -6.38,-2.57c-1.51,0.58 -2.82,-0.59 -3.86,-1.86c-2.89,-3.55 -5.85,-7.04 -8.79,-10.55c-14.06,-16.76 -28.12,-33.51 -42.19,-50.27c-1.19,-1.42 -2.57,-2.72 -2.94,-5.03c0.52,-0.58 1.1,-1.39 1.84,-2.02c3.36,-2.86 6.75,-5.67 10.15,-8.48c2.06,-1.72 2.91,-1.66 4.62,0.36c4.05,4.79 8.08,9.6 12.1,14.41c11.44,13.65 22.86,27.3 34.29,40.95c2.5,2.99 5.01,5.97 7.49,8.99c0.63,0.78 1.13,1.66 1.8,2.67c-0.7,1.31 -1.38,2.59 -2.2,4.14c2.05,2.55 3.99,5.09 6.05,7.54c9.49,11.3 19,22.57 28.52,33.84c7.55,8.94 15.13,17.84 22.66,26.79c5.56,6.62 11.06,13.3 16.61,19.93c5.66,6.77 11.35,13.49 17.02,20.25c3.05,3.65 6.08,7.3 9.07,10.99c1.52,1.89 1.44,2.76 -0.42,4.23c-1.71,1.35 -3.54,2.54 -5.77,4.12z" fill-rule = "evenodd" clip-rule = "evenodd" transform = "matrix(1.901299,0,0,1.901299,-1180.731,-723.6636)" vector-effect="non-scaling-stroke" pen = "1.901302,1.901301" />
<path style="fill:#FFFFFF;stroke:none; stroke-width:1" d="m1155.53,1079.7c-1.09,-1.13 -2.12,-2.2 -3.11,-3.22c0.2,-3.67 2.03,-6.63 3.12,-9.8c4.14,-11.83 8.46,-23.6 12.77,-35.37c3.42,-9.36 6.94,-18.69 10.35,-28.06c2.54,-6.97 4.92,-14.01 7.47,-20.98c1.38,-3.78 2.97,-7.49 4.33,-10.93c2.04,-1 3.41,0.05 4.79,0.5c3.71,1.19 7.34,2.6 11,3.92c1.84,0.66 2.47,1.55 2.19,3.43c-0.15,1 -0.41,2 -0.74,2.95c-4.39,12.1 -8.79,24.2 -13.2,36.29c-3.36,9.21 -6.77,18.41 -10.13,27.63c-3.24,8.9 -6.43,17.8 -9.69,26.7c-0.76,2.05 -1.67,4.05 -2.44,5.89c-0.33,0.23 -0.46,0.38 -0.61,0.42c-4.96,1.28 -4.94,1.29 -6.74,6.24c-3.9,10.65 -7.86,21.28 -11.73,31.94c-3.22,8.88 -6.26,17.82 -9.51,26.69c-4.02,10.96 -8.21,21.85 -12.25,32.8c-2.58,6.99 -5.01,14.05 -7.52,21.07c-0.17,0.48 -0.27,1 -0.53,1.42c-0.6,0.97 -1.54,1.24 -2.64,1.05c-0.16,-0.03 -0.32,-0.09 -0.48,-0.15c-6.9,-2.56 -7.1,-3.23 -4.52,-10.26c5.21,-14.13 10.29,-28.29 15.43,-42.45c2.37,-6.52 4.77,-13.03 7.13,-19.56c2,-5.55 3.91,-11.14 5.96,-16.66c1.7,-4.59 3.59,-9.1 5.34,-13.67c1.73,-4.57 3.43,-9.17 5.06,-13.78c0.44,-1.25 0.59,-2.61 0.89,-4.03z" fill-rule = "evenodd" clip-rule = "evenodd" transform = "matrix(1.901298,0,0,1.901298,-1180.731,-723.6636)" vector-effect="non-scaling-stroke" pen = "1.901301,1.901301" />
<path style="fill:#FFFFFF;stroke:none; stroke-width:1" d="m1443,984.92c-0.53,1.76 -0.91,3.05 -1.31,4.38c0.22,0.42 0.35,0.99 0.71,1.29c5.94,5.06 11.9,10.09 17.88,15.12c9.22,7.75 18.44,15.5 27.67,23.23c9.1,7.62 18.26,15.18 27.35,22.81c9.62,8.06 19.2,16.17 28.8,24.25c3.77,3.17 7.54,6.32 11.29,9.5c1.29,1.08 2.51,2.23 3.91,3.48c-1.56,3.35 -3.91,5.56 -7.15,7.31c-3.67,-3.06 -7.3,-6.08 -10.92,-9.12c-8.18,-6.87 -16.34,-13.78 -24.53,-20.65c-13.9,-11.67 -27.81,-23.32 -41.71,-34.97c-13.01,-10.89 -26.01,-21.77 -39.02,-32.66c-0.39,-0.33 -0.76,-0.68 -1.16,-1c-1.45,-1.19 -2.99,-1.47 -4.69,-0.48c-0.58,0.33 -1.22,0.54 -2.15,0.95c-2.57,-2.06 -5.23,-4.11 -7.79,-6.27c-20.01,-16.8 -40,-33.61 -59.99,-50.43c-1.04,-0.87 -2.11,-1.72 -3.03,-2.71c-0.74,-0.81 -0.86,-1.9 -0.1,-2.79c3.55,-4.1 7.14,-8.16 10.71,-12.22c0.11,-0.12 0.31,-0.15 0.59,-0.28c1.82,-0.26 2.98,1.08 4.26,2.15c7.8,6.54 15.61,13.06 23.39,19.63c8.3,7 16.53,14.08 24.84,21.06c5.97,5.02 12.03,9.93 18.05,14.89c1.3,1.07 2.55,2.2 4.1,3.52z" fill-rule = "evenodd" clip-rule = "evenodd" transform = "matrix(1.901299,0,0,1.9013,-1180.731,-723.6639)" vector-effect="non-scaling-stroke" pen = "1.901301,1.901302" />
<path style="fill:#FFFFFF;stroke:none; stroke-width:1" d="m1119.94,1072.94c-0.74,0.98 -1.76,2.11 -2.51,3.4c-6.24,10.67 -12.46,21.37 -18.63,32.08c-10.25,17.76 -20.44,35.54 -30.69,53.29c-1.34,2.32 -2.91,4.51 -4.43,6.85c-2.83,-0.71 -4.86,-2.23 -6.85,-3.75c-0.85,-0.65 -1.1,-1.76 -0.65,-2.78c0.62,-1.39 1.31,-2.75 2.08,-4.07c7.45,-12.91 14.94,-25.78 22.4,-38.7c5.77,-9.98 11.46,-19.99 17.22,-29.97c3.46,-6 6.97,-11.97 10.59,-18.17c-0.98,-1.12 -1.94,-2.23 -3.05,-3.49c0.29,-1.75 1.28,-3.31 2.2,-4.91c6.46,-11.14 12.94,-22.27 19.35,-33.44c3.79,-6.62 7.39,-13.34 11.19,-19.94c4.13,-7.19 8.43,-14.28 12.6,-21.44c5.12,-8.79 10.2,-17.59 15.27,-26.39c0.67,-1.19 1.19,-2.47 3.14,-2.96c2.32,1.31 4.96,2.78 7.58,4.27c2.06,1.17 4.03,2.54 6.18,3.52c2.08,0.94 2.45,2.53 1.18,4.52c-1.19,1.85 -2.24,3.79 -3.34,5.7c-8.48,14.67 -16.94,29.36 -25.43,44.02c-3.73,6.44 -7.57,12.82 -11.31,19.26c-5.87,10.1 -11.78,20.2 -17.48,30.4c-1.29,2.31 -2.67,3.36 -5.24,2.55c-0.29,-0.09 -0.66,0.06 -1.39,0.14z" fill-rule = "evenodd" clip-rule = "evenodd" transform = "matrix(1.901298,0,0,1.901299,-1180.731,-723.6635)" vector-effect="non-scaling-stroke" pen = "1.901301,1.901301" />
<path style="fill:#FFFFFF;stroke:none; stroke-width:1" d="m1595.67,1041.64c-43.33,-25.03 -86.73,-50.1 -129.86,-75.01c-0.57,0.11 -0.75,0.1 -0.89,0.18c-4.56,2.43 -4.53,2.39 -9.07,-0.25c-14.36,-8.31 -28.74,-16.58 -43.11,-24.88c-12.48,-7.19 -24.95,-14.42 -37.43,-21.62c-0.44,-0.25 -0.94,-0.41 -1.36,-0.69c-1.57,-1.05 -1.86,-2.2 -0.87,-3.88c2.74,-4.67 5.53,-9.31 8.25,-13.89c1.34,-0.67 2.36,-0.09 3.41,0.52c9.5,5.55 19,11.13 28.53,16.62c14.25,8.19 28.55,16.3 42.79,24.51c6.01,3.45 11.93,7.05 18.06,10.69c-0.29,1.75 -0.56,3.34 -0.87,5.19c8.63,4.88 17.19,9.68 25.69,14.57c8.66,4.97 17.28,10.04 25.91,15.06c8.49,4.94 16.98,9.91 25.5,14.82c8.65,4.99 17.41,9.81 26.01,14.89c8.39,4.97 17.03,9.56 25.15,14.82c-2.42,5.45 -2.63,5.73 -5.84,8.34z" fill-rule = "evenodd" clip-rule = "evenodd" transform = "matrix(1.901299,0,0,1.901298,-1180.732,-723.6635)" vector-effect="non-scaling-stroke" pen = "1.901302,1.901301" />
<path style="fill:#FFFFFF;stroke:none; stroke-width:1" d="m1163.29,954.39c-0.54,0.98 -0.77,1.64 -1.19,2.14c-27.86,33.26 -55.73,66.51 -83.61,99.75c-0.54,0.63 -1.22,1.14 -1.93,1.79c-1.49,-0.31 -2.95,-0.62 -4.51,-0.94c-0.56,0.45 -1.16,0.79 -1.58,1.29c-5.81,6.85 -11.58,13.73 -17.37,20.59c-10.28,12.17 -20.58,24.33 -30.85,36.51c-2.95,3.5 -5.79,7.08 -8.76,10.57c-1.97,2.3 -3.32,2.37 -5.47,0.23c-3.93,-3.91 -5.15,-3.86 -0.8,-8.95c6.92,-8.13 13.82,-16.3 20.69,-24.47c7.53,-8.95 15.02,-17.93 22.54,-26.9c2.93,-3.51 5.9,-6.99 8.8,-10.52c0.74,-0.9 1.32,-1.93 2.1,-3.08c-0.52,-0.75 -0.93,-1.46 -1.44,-2.07c-0.76,-0.92 -0.72,-1.86 -0.2,-2.82c0.31,-0.59 0.73,-1.14 1.16,-1.65c6.23,-7.39 12.49,-14.75 18.69,-22.15c6.97,-8.31 13.88,-16.67 20.85,-24.98c5.55,-6.62 11.19,-13.17 16.74,-19.8c9.46,-11.3 18.88,-22.64 28.32,-33.97c0.97,-1.17 1.82,-2.49 3.84,-2.56c4.47,3.84 9.07,7.78 13.98,12z" fill-rule = "evenodd" clip-rule = "evenodd" transform = "matrix(1.901299,0,0,1.901298,-1180.731,-723.6635)" vector-effect="non-scaling-stroke" pen = "1.901301,1.901301" />
<path style="fill:#FFFFFF;stroke:none; stroke-width:1" d="m1502.08,921.73c2.99,2.66 6.67,3.17 9.94,4.41c9.98,3.79 20.1,7.22 30.15,10.82c11.33,4.05 22.65,8.08 33.94,12.23c8.88,3.26 17.67,6.75 26.56,10.01c9.22,3.38 18.5,6.61 27.76,9.9c0.79,0.28 1.62,0.51 2.39,0.86c1.04,0.47 1.53,1.51 1.15,2.5c-0.65,1.74 -1.32,3.48 -2.11,5.16c-0.84,1.81 -2.27,2.22 -4.17,1.5c-6.98,-2.6 -13.98,-5.17 -20.98,-7.73c-8.28,-3.03 -16.56,-6.05 -24.86,-9.04c-8.75,-3.15 -17.54,-6.21 -26.28,-9.41c-8.74,-3.2 -17.42,-6.59 -26.17,-9.78c-10.66,-3.89 -21.37,-7.67 -32.06,-11.49c-1.33,-0.47 -2.73,-0.78 -3.7,0.58c-1.65,2.32 -3.67,1.9 -5.89,1.09c-5.42,-1.99 -10.85,-3.92 -16.28,-5.85c-7.32,-2.61 -14.67,-5.14 -21.96,-7.8c-8.25,-3.03 -16.43,-6.22 -24.68,-9.25c-11.93,-4.38 -23.89,-8.71 -35.85,-13.01c-4.75,-1.72 -4.9,-2.14 -2.89,-6.97c1.3,-3.12 2.35,-6.34 3.43,-9.55c1.07,-3.18 1.95,-3.75 5.26,-2.78c2.43,0.71 4.81,1.58 7.17,2.47c10.76,4.03 21.47,8.17 32.26,12.11c9.39,3.44 18.88,6.61 28.29,9.98c7.17,2.57 14.29,5.28 21.44,7.9c4.76,1.74 9.51,3.52 14.32,5.12c3.78,1.25 4.06,1.5 3.8,6.03z" fill-rule = "evenodd" clip-rule = "evenodd" transform = "matrix(1.901299,0,0,1.901299,-1180.731,-723.6638)" vector-effect="non-scaling-stroke" pen = "1.901301,1.901302" />
<path style="fill:#FFFFFF;stroke:none; stroke-width:1" d="m1132.1,923.3c3.97,4.61 7.81,9.08 11.56,13.43c0.1,1.52 -0.61,2.38 -1.57,3.19c-15.2,12.76 -30.35,25.58 -45.55,38.33c-15.86,13.29 -31.76,26.52 -47.63,39.79c-4.42,3.7 -8.78,7.48 -13.19,11.19c-1.01,0.85 -2.16,1.55 -3.16,2.25c-0.74,-0.3 -1.25,-0.42 -1.66,-0.69c-1.82,-1.21 -3.43,-1.01 -5.09,0.4c-3.23,2.75 -6.56,5.37 -9.81,8.1c-12.48,10.45 -24.95,20.91 -37.41,31.38c-3.12,2.62 -6.23,5.24 -9.32,7.91c-4.07,3.53 -4.46,3.51 -7.92,-0.85c-0.43,-0.53 -0.88,-1.03 -1.25,-1.6c-0.86,-1.37 -0.8,-2.54 0.41,-3.65c2.24,-2.07 4.56,-4.07 6.89,-6.04c9.46,-7.98 18.93,-15.96 28.42,-23.89c6.9,-5.77 13.85,-11.46 20.77,-17.2c1.02,-0.85 1.99,-1.78 3.13,-2.82c-0.59,-1.48 -1.14,-2.85 -1.75,-4.38c0.65,-0.71 1.24,-1.54 2,-2.18c36.68,-30.69 73.36,-61.36 110.06,-92.01c0.36,-0.29 0.95,-0.31 2.05,-0.64z" fill-rule = "evenodd" clip-rule = "evenodd" transform = "matrix(1.901298,0,0,1.901299,-1180.731,-723.6638)" vector-effect="non-scaling-stroke" pen = "1.901301,1.901302" />
<path style="fill:#FFFFFF;stroke:none; stroke-width:1" d="m1118.79,901.42c3.01,5.16 5.98,10.26 8.84,15.15c0.01,1.88 -1.07,2.61 -2.3,3.32c-5.87,3.37 -11.72,6.81 -17.58,10.19c-10.12,5.82 -20.28,11.6 -30.4,17.43c-19.36,11.17 -38.71,22.37 -58.06,33.56c-6.3,3.64 -12.63,7.24 -18.89,10.95c-1.84,1.1 -3.34,1.32 -4.99,-0.32c-1.23,-1.22 -2.71,-1.09 -4.2,-0.23c-10.25,5.96 -20.53,11.89 -30.8,17.83c-10.25,5.93 -20.49,11.86 -30.74,17.79c-0.73,0.42 -1.45,0.88 -2.22,1.22c-1.44,0.65 -2.61,0.38 -3.59,-0.9c-0.73,-0.94 -1.31,-1.98 -1.93,-2.99c-1.8,-3.02 -1.71,-3.69 1.44,-5.58c5.52,-3.31 11.09,-6.53 16.67,-9.75c14.66,-8.47 29.35,-16.9 44.02,-25.37c1.31,-0.75 2.5,-1.7 3.73,-2.54c-0.15,-1.65 -0.29,-3.12 -0.43,-4.69c1.05,-0.76 1.95,-1.53 2.97,-2.11c42.26,-24.34 84.53,-48.65 126.79,-72.96c0.25,-0.14 0.66,-0.01 1.67,-0.01z" fill-rule = "evenodd" clip-rule = "evenodd" transform = "matrix(1.901299,0,0,1.901298,-1180.732,-723.6634)" vector-effect="non-scaling-stroke" pen = "1.901301,1.901301" />
<path style="fill:#FFFFFF;stroke:none; stroke-width:1" d="m970.84,943.26c-4.18,1.47 -7.86,2.72 -11.51,4.05c-7.45,2.72 -14.87,5.52 -22.32,8.24c-13.03,4.78 -26.08,9.5 -39.1,14.29c-6.16,2.25 -7.11,1.86 -9.49,-4.14c-0.74,-1.89 -0.42,-2.96 1.41,-3.67c5.66,-2.21 11.36,-4.37 17.06,-6.5c5.22,-1.94 10.47,-3.82 15.7,-5.73c6.66,-2.44 13.32,-4.91 19.99,-7.32c7.31,-2.64 14.66,-5.22 21.98,-7.87c1.09,-0.39 2.08,-1.04 3.01,-1.52c0.54,-4.99 0.58,-4.88 4.99,-6.46c7.02,-2.49 13.97,-5.15 20.96,-7.72c6.82,-2.51 13.64,-5.01 20.47,-7.51c6.82,-2.51 13.64,-5.03 20.47,-7.51c7.81,-2.82 15.63,-5.6 23.44,-8.43c7.16,-2.6 14.3,-5.26 21.45,-7.86c6.83,-2.49 13.66,-4.95 20.49,-7.42c2.06,-0.75 4.09,-1.64 6.21,-2.16c2.81,-0.7 3.62,-0.06 4.52,2.58c1.1,3.2 2.31,6.35 3.47,9.52c0.34,0.96 0.76,1.89 1.02,2.87c0.54,1.94 0.11,2.86 -1.66,3.67c-0.61,0.28 -1.26,0.48 -1.9,0.71c-13.24,4.73 -26.49,9.42 -39.7,14.22c-4.92,1.78 -9.7,3.91 -14.6,5.7c-6.98,2.56 -14.04,4.94 -21.04,7.45c-9.1,3.25 -18.18,6.57 -27.26,9.85c-9.39,3.38 -18.78,6.73 -28.18,10.1c-0.32,0.12 -0.65,0.22 -0.93,0.4c-3.37,2.18 -6.35,1.95 -8.93,-1.81z" fill-rule = "evenodd" clip-rule = "evenodd" transform = "matrix(1.901298,0,0,1.901299,-1180.73,-723.6638)" vector-effect="non-scaling-stroke" pen = "1.9013,1.901302" />
<path style="fill:#FFFFFF;stroke:none; stroke-width:1" d="m863.93,908.04c-0.7,-2.37 -1.38,-4.63 -2.03,-6.86c0.27,-1.41 1.32,-1.96 2.51,-2.21c1.33,-0.29 2.68,-0.43 4.02,-0.67c8.17,-1.46 16.35,-2.96 24.53,-4.38c5.85,-1.01 11.7,-1.91 17.56,-2.85c0.34,-0.05 0.68,-0.04 1.02,-0.1c5.81,-1.11 11.62,-2.27 17.44,-3.33c5.5,-1.01 11.02,-1.89 16.51,-2.9c4.15,-0.76 8.27,-1.63 12,-2.38c0.53,-0.68 0.92,-0.92 0.92,-1.2c0.19,-3.41 2.44,-4.55 5.37,-5c5.68,-0.88 11.39,-1.67 17.07,-2.66c6.16,-1.07 12.31,-2.33 18.46,-3.45c4.33,-0.8 8.67,-1.52 13.02,-2.26c9.69,-1.65 19.4,-3.26 29.08,-4.94c7.69,-1.34 15.35,-2.77 23.03,-4.15c0.83,-0.15 1.67,-0.28 2.51,-0.42c8,-1.41 15.99,-2.85 24,-4.25c3.98,-0.69 7.97,-1.3 12.23,-1.99c0.13,0.12 0.75,0.4 0.82,0.8c1.04,5.32 2.05,10.64 2.99,15.98c0.29,1.62 -0.42,2.53 -2.12,2.86c-4.15,0.78 -8.32,1.47 -12.48,2.22c-1.5,0.28 -2.98,0.66 -4.48,0.94c-2.16,0.39 -4.34,0.72 -6.51,1.09c-1.5,0.25 -2.99,0.52 -4.49,0.8c-2.49,0.44 -4.99,0.9 -7.48,1.34c-0.17,0.03 -0.35,0.01 -0.51,0.05c-6.15,1.17 -12.29,2.36 -18.43,3.53c-1.16,0.22 -2.33,0.41 -3.5,0.62c-2.5,0.45 -4.99,0.9 -7.5,1.35c-1.66,0.3 -3.33,0.58 -4.99,0.88c-6.83,1.24 -13.66,2.48 -20.49,3.73c-0.66,0.13 -1.32,0.29 -1.99,0.4c-5.85,0.9 -11.71,1.76 -17.56,2.72c-4.34,0.71 -8.67,1.51 -13.01,2.31c-5.66,1.05 -11.32,2.13 -16.98,3.21c-1.7,0.33 -2.99,-0.08 -3.78,-1.73c-0.29,-0.6 -0.76,-1.1 -1.11,-1.58c-2.68,-0.78 -5.16,-0.13 -7.66,0.32c-6,1.1 -11.98,2.25 -17.99,3.33c-9.51,1.71 -19.02,3.42 -28.54,5.05c-9.85,1.69 -19.73,3.27 -29.59,4.94c-1.84,0.31 -3.65,0.8 -5.47,1.18c-2,0.42 -3.99,0.94 -6.39,-0.33z" fill-rule = "evenodd" clip-rule = "evenodd" transform = "matrix(1.901298,0,0,1.901298,-1180.731,-723.6635)" vector-effect="non-scaling-stroke" pen = "1.9013,1.901301" />
<path style="fill:#FFFFFF;stroke:none; stroke-width:1" d="m1396.98,851.98c21.58,3.76 42.77,7.43 63.95,11.14c21.16,3.71 42.33,7.45 63.79,11.23c0.26,1.59 0.52,3.19 0.81,4.97c0.81,0.26 1.58,0.67 2.38,0.73c3.23,0.22 6.33,1.04 9.48,1.71c5.95,1.28 12.01,2.05 18.03,3.06c4.5,0.75 9.01,1.5 13.51,2.33c6.49,1.2 12.97,2.49 19.47,3.7c4,0.75 8,1.44 12,2.14c13.87,2.39 27.74,4.76 41.61,7.14c3.51,0.6 7.03,1.13 10.53,1.78c2.37,0.45 3.03,1.26 2.65,3.46c-0.97,5.6 -0.27,7.34 -7.5,6.01c-5.83,-1.07 -11.7,-1.93 -17.54,-2.94c-7.69,-1.33 -15.35,-2.71 -23.02,-4.08c-11.02,-1.96 -22.02,-3.96 -33.03,-5.88c-6.68,-1.16 -13.4,-2.15 -20.07,-3.33c-5.83,-1.03 -11.65,-2.21 -17.46,-3.32c-1.01,-0.18 -2,-0.36 -3.01,-0.54c-3,-0.51 -6.03,-0.87 -8.98,-1.59c-2.73,-0.66 -5.03,-0.64 -6.61,2.08c-0.25,0.43 -0.67,0.76 -1.12,1.27c-1.1,0 -2.3,0.18 -3.41,-0.03c-5.66,-1.06 -11.3,-2.23 -16.95,-3.33c-1.33,-0.25 -2.68,-0.4 -4.03,-0.57c-1.01,-0.12 -2.04,-0.11 -3.04,-0.29c-5.82,-1.11 -11.63,-2.27 -17.45,-3.38c-1.83,-0.35 -3.68,-0.6 -5.51,-0.92c-2.17,-0.36 -4.33,-0.74 -6.5,-1.13c-1.83,-0.33 -3.67,-0.67 -5.5,-1.02c-2.15,-0.41 -4.3,-0.86 -6.46,-1.27c-1.67,-0.31 -3.34,-0.57 -5.01,-0.87c-2.66,-0.49 -5.31,-1.03 -7.98,-1.47c-2.17,-0.37 -4.36,-0.57 -6.52,-0.96c-6,-1.09 -11.98,-2.25 -17.97,-3.36c-4.99,-0.92 -10,-1.77 -14.99,-2.7c-1.82,-0.34 -2.7,-1.23 -2.44,-2.64c0.99,-5.49 2.05,-10.97 3.14,-16.45c0.05,-0.26 0.47,-0.44 0.75,-0.7z" fill-rule = "evenodd" clip-rule = "evenodd" transform = "matrix(1.901298,0,0,1.901298,-1180.731,-723.6631)" vector-effect="non-scaling-stroke" pen = "1.9013,1.9013" />
<path style="fill:#FFFFFF;stroke:none; stroke-width:1" d="m955.39,841.23c-1.98,-0.03 -3.83,-0.09 -5.68,-0.09c-31.05,0 -62.1,0.02 -93.16,0.02c-1.69,0 -3.39,-0.01 -5.09,-0.02c-6.7,-0.04 -8.22,-1.89 -7.48,-9.38c0.87,-0.2 1.81,-0.56 2.77,-0.62c2.03,-0.11 4.06,-0.1 6.1,-0.09c31.56,0.01 63.13,0.03 94.69,0.03c2.54,0 5.07,-0.09 7.62,-0.14c0.5,-0.92 0.97,-1.62 1.3,-2.38c0.54,-1.25 1.56,-1.78 2.79,-1.91c1.35,-0.14 2.71,-0.16 4.07,-0.16c36.99,0.02 73.98,0.05 110.98,0.06c7.29,0 14.59,-0.1 21.88,-0.14c1.53,-0.01 3.06,-0.03 4.58,0.04c2.79,0.14 3.64,1.03 3.25,3.86c-0.56,4.06 -0.81,8.08 -0.09,12.16c0.38,2.14 -0.62,3.21 -2.73,3.4c-1.18,0.11 -2.37,0.08 -3.56,0.08c-43.95,0.03 -87.9,0.06 -131.85,0.08c-1.02,0 -2.06,-0.2 -3.05,-0.07c-3.71,0.52 -6.29,-0.74 -7.34,-4.75z" fill-rule = "evenodd" clip-rule = "evenodd" transform = "matrix(1.901298,0,0,1.901299,-1180.731,-723.6638)" vector-effect="non-scaling-stroke" pen = "1.9013,1.901301" />
<path style="fill:#FFFFFF;stroke:none; stroke-width:1" d="m1538.68,826.48c0.89,1.55 1.63,2.84 2.5,4.36c5.85,0.4 11.78,0.13 17.7,0.18c5.77,0.05 11.53,0.03 17.3,0.03c5.94,0 11.87,0 17.81,0c5.94,0 11.88,0 17.81,0c5.94,0 11.88,0 17.81,0c5.77,0 11.54,-0.02 17.3,0.01c5.91,0.03 11.82,-0.1 17.61,-0.01c1.8,2.89 0.73,5.61 0.57,8.22c-0.04,0.55 -1.1,1.37 -1.8,1.49c-1.65,0.29 -3.36,0.32 -5.05,0.32c-37.83,0.03 -75.66,0.03 -113.5,0.03c-2.18,0 -4.37,0 -6.19,0c-0.6,0.57 -0.96,0.75 -1.06,1.03c-1.27,3.19 -3.71,3.87 -6.93,3.86c-31.21,-0.09 -62.43,-0.06 -93.64,-0.06c-11.7,0 -23.41,0.03 -35.11,0.01c-1.65,0 -3.41,0.44 -5.03,-0.99c-0.09,-0.48 -0.31,-1.13 -0.32,-1.79c-0.11,-4.73 -0.19,-9.47 -0.27,-14.2c-0.03,-1.29 0.77,-2.31 2.06,-2.45c0.84,-0.1 1.69,-0.05 2.54,-0.05c42.24,0 84.48,0.01 126.72,0.01c3.72,0 7.43,0 11.15,0z" fill-rule = "evenodd" clip-rule = "evenodd" transform = "matrix(1.901298,0,0,1.901299,-1180.731,-723.6638)" vector-effect="non-scaling-stroke" pen = "1.9013,1.901302" />
<path style="fill:#FFFFFF;stroke:none; stroke-width:1" d="m1103.49,820.29c-2.43,0.31 -4.54,-0.31 -6.68,-0.72c-2.66,-0.51 -5.32,-1.01 -7.98,-1.51c-1.67,-0.31 -3.34,-0.61 -5,-0.93c-0.5,-0.1 -0.98,-0.29 -1.48,-0.37c-5.83,-1 -11.67,-1.97 -17.51,-2.96c-1.5,-0.25 -3,-0.55 -4.5,-0.83c-2.33,-0.42 -4.66,-0.85 -6.99,-1.26c-0.5,-0.09 -1.03,-0.04 -1.52,-0.17c-5.24,-1.41 -10.64,-2.02 -15.97,-2.96c-6.5,-1.15 -13,-2.34 -19.5,-3.5c-5.51,-0.98 -11.01,-1.94 -16.51,-2.91c-7.01,-1.22 -14.02,-2.46 -21.03,-3.68c-5.18,-0.91 -10.35,-1.87 -15.55,-2.67c-2.29,-0.35 -3.82,-1.26 -4.1,-3.71c-0.21,-1.87 -1.44,-2.47 -3.14,-2.68c-7.23,-0.91 -14.41,-2.16 -21.51,-3.77c-1.32,-0.3 -2.69,-0.4 -4.03,-0.55c-0.85,-0.1 -1.71,-0.04 -2.54,-0.21c-5.65,-1.09 -11.29,-2.22 -16.93,-3.34c-0.5,-0.1 -0.99,-0.25 -1.49,-0.33c-5.85,-0.96 -11.71,-1.86 -17.54,-2.89c-5.84,-1.03 -11.65,-2.19 -17.47,-3.29c-1.5,-0.28 -3.01,-0.54 -4.5,-0.81c-2.33,-0.41 -4.66,-0.81 -6.99,-1.24c-0.67,-0.12 -1.3,-0.38 -1.97,-0.49c-5.68,-0.93 -11.36,-1.88 -17.05,-2.75c-3.18,-0.48 -6.37,-0.87 -9.21,-2.9c-0.08,-2.82 -0.96,-5.63 0.37,-8.33c3.34,-0.11 54.73,8.73 62.82,10.24c20.6,3.84 41.27,7.33 62.08,10.98c1.09,-1.23 2.19,-2.47 3.36,-3.8c3.74,0.24 7.46,0.24 11.06,1.47c0.8,0.27 1.64,0.46 2.47,0.6c6.36,1.04 12.72,2.01 19.07,3.1c5.33,0.93 10.64,2.04 15.97,3c6.34,1.14 12.69,2.17 19.03,3.26c4.34,0.75 8.69,1.52 13.02,2.3c12.35,2.22 24.7,4.47 37.06,6.64c6.52,1.14 13.06,2.14 19.58,3.21c1.17,0.19 2.34,0.41 3.5,0.69c2.88,0.68 3.22,1.26 2.68,4.26c-0.79,4.34 -1.51,8.68 -2.34,13.01c-0.18,0.95 -0.66,1.84 -1.02,2.81z" fill-rule = "evenodd" clip-rule = "evenodd" transform = "matrix(1.901298,0,0,1.901298,-1180.73,-723.6633)" vector-effect="non-scaling-stroke" pen = "1.9013,1.9013" />
<path style="fill:#FFFFFF;stroke:none; stroke-width:1" d="m1544.46,778.42c3.05,0.33 5.68,-0.13 8.34,-0.75c2.63,-0.6 5.33,-0.93 7.99,-1.41c1.49,-0.27 2.98,-0.6 4.48,-0.89c2.33,-0.43 4.66,-0.84 6.99,-1.23c0.67,-0.11 1.36,-0.09 2.03,-0.21c4.98,-0.93 9.96,-1.89 14.94,-2.82c5.5,-1.02 10.99,-2.06 16.48,-3.03c5.5,-0.97 11.02,-1.82 16.52,-2.78c12.19,-2.13 24.37,-4.3 36.57,-6.45c0.48,-0.08 0.99,-0.01 1.64,-0.01c1.75,2.29 1.56,5.12 2.06,7.69c0.13,0.62 -0.95,1.91 -1.73,2.2c-1.73,0.64 -3.61,0.86 -5.44,1.2c-2.66,0.5 -5.33,0.95 -8,1.43c-3.99,0.72 -7.97,1.51 -11.97,2.19c-5.84,0.98 -11.69,1.89 -17.53,2.86c-1.67,0.28 -3.32,0.68 -4.98,1.02c-1.66,0.33 -3.31,0.66 -4.97,0.97c-2.5,0.47 -5,0.91 -7.5,1.37c-1.33,0.24 -2.65,0.55 -3.99,0.79c-3.33,0.6 -6.66,1.18 -9.99,1.77c-0.33,0.06 -0.66,0.16 -0.99,0.22c-5.51,0.91 -11.02,1.76 -16.52,2.72c-8.16,1.42 -16.29,2.93 -24.07,4.34c-0.43,0.48 -0.6,0.59 -0.65,0.74c-1.6,5.22 -1.25,4.3 -6.17,5.17c-11.19,1.97 -22.4,3.78 -33.57,5.78c-10.17,1.81 -20.31,3.83 -30.48,5.68c-5.66,1.02 -11.44,1.53 -17.02,2.87c-6.27,1.51 -12.77,1.61 -18.94,3.61c-1.73,0.56 -3.73,0.27 -5.53,0.65c-8.95,1.9 -17.95,3.51 -27.01,4.77c-2.34,0.33 -4.6,1.14 -6.92,1.57c-1.5,0.28 -2.43,-0.35 -2.66,-1.65c-0.9,-5 -1.79,-10 -2.6,-15.02c-0.33,-2.07 0.21,-2.9 2.18,-3.31c3.47,-0.72 6.99,-1.29 10.49,-1.91c8.51,-1.5 17.03,-3.02 25.55,-4.48c9.69,-1.66 19.39,-3.2 29.07,-4.9c5.67,-1 11.29,-2.22 16.95,-3.3c1.49,-0.28 3.01,-0.45 4.52,-0.65c1.17,-0.15 2.37,-0.21 3.53,-0.42c8.01,-1.41 16.02,-2.81 24.01,-4.3c5.98,-1.12 11.94,-2.44 17.91,-3.57c2.83,-0.54 5.72,-0.78 8.55,-1.27c1.33,-0.23 2.6,-0.75 3.92,-1.06c2.11,-0.53 2.78,-0.12 3.73,2.14c0.19,0.46 0.42,0.9 0.79,1.69z" fill-rule = "evenodd" clip-rule = "evenodd" transform = "matrix(1.901298,0,0,1.901298,-1180.731,-723.6635)" vector-effect="non-scaling-stroke" pen = "1.9013,1.9013" />
<path style="fill:#FFFFFF;stroke:none; stroke-width:1" d="m1538.74,725.55c5.2,-1.79 10.48,-3.58 15.73,-5.46c7.33,-2.62 14.65,-5.28 21.94,-8c4.9,-1.82 9.74,-3.81 14.63,-5.66c4.26,-1.61 8.54,-3.15 12.82,-4.69c10.19,-3.67 20.4,-7.34 30.61,-10.98c1.43,-0.51 2.88,-1 4.37,-1.35c1.26,-0.29 2.51,0.15 3.07,1.29c0.9,1.8 1.6,3.71 2.19,5.64c0.33,1.05 -0.58,2.13 -1.91,2.63c-2.06,0.78 -4.13,1.51 -6.19,2.27c-9.34,3.48 -18.67,6.99 -28.03,10.42c-6.67,2.44 -13.38,4.77 -20.06,7.17c-9.74,3.5 -19.46,7.04 -29.19,10.55c-4.78,1.72 -9.57,3.4 -14.35,5.12c-0.96,0.34 -1.92,0.69 -2.81,1.17c-1.09,0.58 -1.99,1.44 -1.88,2.79c0.19,2.51 -1.23,3.69 -3.33,4.45c-18.17,6.54 -36.32,13.07 -54.47,19.65c-12.1,4.39 -24.16,8.91 -36.27,13.3c-12.89,4.66 -25.82,9.22 -38.72,13.85c-4.15,1.49 -8.25,3.11 -12.42,4.57c-2.85,1 -3.99,0.27 -4.9,-2.53c-1.1,-3.36 -2.37,-6.67 -3.57,-10c-0.5,-1.4 -1,-2.8 -1.48,-4.14c1.44,-1.82 3.27,-2.36 4.98,-2.99c8.1,-2.96 16.26,-5.79 24.37,-8.73c11.96,-4.34 23.89,-8.74 35.85,-13.07c7.01,-2.54 14.06,-4.94 21.06,-7.49c6.68,-2.44 13.29,-5.07 19.97,-7.5c11.62,-4.22 23.28,-8.35 34.92,-12.51c2.39,-0.86 4.77,-1.76 7.19,-2.54c2.6,-0.84 2.6,-0.78 4.56,1.61c0.3,0.37 0.72,0.65 1.33,1.19z" fill-rule = "evenodd" clip-rule = "evenodd" transform = "matrix(1.901299,0,0,1.901298,-1180.731,-723.6636)" vector-effect="non-scaling-stroke" pen = "1.901302,1.901301" />
<path style="fill:#FFFFFF;stroke:none; stroke-width:1" d="m1381.48,771.29c-3.16,-5.58 -6.07,-10.72 -8.97,-15.85c0.39,-1.97 1.98,-2.67 3.44,-3.51c8.8,-5.09 17.58,-10.21 26.39,-15.28c11.61,-6.69 23.25,-13.3 34.85,-20c11.43,-6.61 22.82,-13.3 34.25,-19.93c4.55,-2.64 9.15,-5.18 13.71,-7.81c10.12,-5.85 20.23,-11.72 30.35,-17.56c0.86,-0.49 1.83,-0.78 2.89,-1.23c0.93,0.88 1.77,1.66 2.63,2.48c1.4,0.4 2.62,-0.14 3.81,-0.83c19.81,-11.47 39.61,-22.92 59.4,-34.4c6.3,-3.64 12.57,-7.34 18.86,-11.01c0.59,-0.34 1.16,-0.71 1.78,-0.98c1.21,-0.54 2.39,-0.41 3.2,0.68c1.31,1.76 2.5,3.61 3.63,5.26c0.07,1.83 -0.93,2.69 -2.14,3.4c-6.14,3.59 -12.26,7.22 -18.43,10.76c-6.03,3.45 -12.13,6.76 -18.15,10.21c-12.34,7.09 -24.65,14.23 -36.97,21.37c-2.78,1.61 -5.55,3.26 -8.3,4.94c-0.7,0.43 -1.27,1.09 -1.75,1.52c-0.16,0.54 -0.38,0.87 -0.33,1.18c0.56,3.83 0.6,3.87 -2.52,5.66c-9.98,5.76 -19.99,11.49 -29.98,17.23c-18.5,10.63 -37.02,21.24 -55.51,31.91c-13.36,7.71 -26.66,15.52 -40.01,23.26c-4.25,2.46 -8.54,4.86 -12.84,7.24c-0.86,0.48 -1.85,0.73 -3.3,1.3z" fill-rule = "evenodd" clip-rule = "evenodd" transform = "matrix(1.901299,0,0,1.901299,-1180.731,-723.6638)" vector-effect="non-scaling-stroke" pen = "1.901301,1.901302" />
<path style="fill:#FFFFFF;stroke:none; stroke-width:1" d="m972.64,729.62c1.58,-1.29 2.87,-2.35 4.25,-3.49c4.86,1.73 9.64,3.42 14.41,5.14c9.22,3.31 18.46,6.59 27.66,9.98c5.07,1.86 10.03,3.99 15.09,5.86c6.35,2.34 12.77,4.5 19.14,6.8c10.04,3.62 20.06,7.31 30.1,10.94c8.91,3.21 17.82,6.37 26.74,9.52c1.92,0.68 3.8,1.39 5.5,3.09c-0.4,1.4 -0.74,2.85 -1.23,4.25c-1.24,3.49 -2.57,6.96 -3.81,10.46c-0.75,2.14 -2.04,3.01 -4.28,2.3c-3.56,-1.12 -7.08,-2.38 -10.57,-3.67c-10.48,-3.88 -20.91,-7.85 -31.4,-11.67c-10.78,-3.94 -21.62,-7.72 -32.41,-11.63c-11.94,-4.33 -23.85,-8.76 -35.79,-13.09c-6.67,-2.42 -13.4,-4.69 -20.07,-7.1c-1.9,-0.68 -3.71,-1.6 -5.82,-2.53c-0.13,-1.55 -0.26,-3.17 -0.41,-4.97c-2.14,-0.87 -4.14,-1.77 -6.18,-2.5c-17.54,-6.29 -35.12,-12.52 -52.65,-18.85c-8.91,-3.22 -17.74,-6.64 -26.62,-9.93c-11.88,-4.4 -23.77,-8.79 -35.66,-13.14c-2.85,-1.05 -5.79,-1.89 -8.67,-2.89c-2.77,-0.96 -3.39,-1.88 -3.39,-4.91c0.01,-1.35 0.07,-2.72 0.21,-4.07c0.19,-1.84 1.4,-2.61 3.27,-2c2.41,0.79 4.78,1.72 7.16,2.59c10.2,3.7 20.39,7.41 30.59,11.09c10.04,3.62 20.11,7.15 30.13,10.83c12.54,4.62 25.01,9.43 37.55,14.03c8.9,3.27 17.88,6.33 27.16,9.59z" fill-rule = "evenodd" clip-rule = "evenodd" transform = "matrix(1.901299,0,0,1.901299,-1180.731,-723.6637)" vector-effect="non-scaling-stroke" pen = "1.901301,1.901301" />
<path style="fill:#FFFFFF;stroke:none; stroke-width:1" d="m1368.66,748.97c-0.39,-0.13 -0.6,-0.15 -0.69,-0.25c-3.45,-3.96 -6.94,-7.88 -10.32,-11.89c-1.69,-2 -1.48,-2.98 0.5,-4.63c9.38,-7.81 18.75,-15.65 28.12,-23.47c10.01,-8.36 20.05,-16.7 30.05,-25.09c15.06,-12.64 30.09,-25.31 45.12,-37.98c7.39,-6.22 14.72,-12.5 22.15,-18.67c2.45,-2.04 4.85,-4.21 8,-5.79c1.05,0.73 2.09,1.47 3.36,2.37c6.01,-4.18 11.31,-9.18 16.94,-13.75c5.66,-4.59 11.12,-9.43 16.7,-14.11c5.59,-4.68 11.2,-9.34 16.84,-13.96c5.61,-4.58 10.8,-9.69 16.87,-13.8c2.41,1.33 3.77,3.32 5.41,4.96c1.1,1.1 1.04,2.6 -0.04,3.66c-1.2,1.19 -2.52,2.27 -3.82,3.34c-11.35,9.42 -22.72,18.81 -34.05,28.26c-8.46,7.05 -16.86,14.17 -25.29,21.27c-0.78,0.65 -1.65,1.23 -2.29,2c-0.77,0.91 -1.41,1.97 -0.82,3.26c1.11,2.52 -0.11,4.04 -2.03,5.59c-5.65,4.6 -11.17,9.37 -16.76,14.05c-8.83,7.4 -17.69,14.78 -26.52,22.17c-15.08,12.62 -30.16,25.24 -45.22,37.88c-12.99,10.89 -25.98,21.78 -38.95,32.69c-1.04,0.87 -2.02,1.79 -3.26,1.88z" fill-rule = "evenodd" clip-rule = "evenodd" transform = "matrix(1.901298,0,0,1.901298,-1180.731,-723.6635)" vector-effect="non-scaling-stroke" pen = "1.901301,1.901301" />
<path style="fill:#FFFFFF;stroke:none; stroke-width:1" d="m1454.29,577.57c1.52,0.65 2.88,1.23 4.46,1.91c2.83,-3.35 5.56,-6.56 8.28,-9.78c9.31,-11.01 18.62,-22 27.9,-33.03c4.04,-4.8 7.96,-9.7 11.97,-14.51c2.99,-3.57 3.69,-3.6 7.41,-0.65c3.83,3.04 3.84,3.49 0.76,7.18c-12.33,14.66 -24.65,29.34 -36.97,44.02c-3.15,3.76 -6.18,7.65 -9.5,11.27c-2.04,2.22 -2.58,4.26 -0.81,6.78c0.17,0.24 0.12,0.65 0.22,1.32c-3.6,4.39 -7.33,8.98 -11.12,13.52c-10.22,12.22 -20.48,24.43 -30.74,36.64c-4.25,5.06 -8.55,10.09 -12.8,15.16c-13.85,16.5 -27.69,33 -41.54,49.5c-5.67,6.76 -11.36,13.5 -17.04,20.25c-0.54,0.65 -1.06,1.33 -1.67,1.9c-0.91,0.84 -2.25,0.91 -3.25,0.09c-1.58,-1.29 -3.05,-2.7 -4.59,-4.03c-2.68,-2.32 -5.38,-4.61 -8.26,-7.08c0.96,-2.91 3.06,-4.98 4.84,-7.12c6.93,-8.34 14.06,-16.52 21.07,-24.81c10.94,-12.95 21.86,-25.94 32.75,-38.93c9.16,-10.92 18.25,-21.89 27.41,-32.8c9.81,-11.69 19.68,-23.34 29.52,-34.99c0.54,-0.64 1.14,-1.22 1.69,-1.8z" fill-rule = "evenodd" clip-rule = "evenodd" transform = "matrix(1.901299,0,0,1.901298,-1180.731,-723.6634)" vector-effect="non-scaling-stroke" pen = "1.901301,1.901301" />
<path style="fill:#FFFFFF;stroke:none; stroke-width:1" d="m1314.97,704.55c0.67,-1.58 1.06,-2.88 1.72,-4.04c30.59,-52.88 61.2,-105.75 91.83,-158.65c1.64,0.09 2.97,0.16 4.52,0.24c0.38,-0.32 1.02,-0.65 1.37,-1.19c1.8,-2.86 3.59,-5.74 5.28,-8.67c9.81,-17.02 19.6,-34.05 29.4,-51.07c2.41,-4.19 2.89,-4.3 7.03,-1.78c1.55,0.95 3.54,1.49 3.69,4.02c-4.18,7.15 -8.45,14.44 -12.68,21.76c-7.97,13.78 -15.89,27.58 -23.87,41.34c-0.79,1.35 -0.88,2.52 0.09,3.73c0.52,0.64 1.04,1.28 1.68,2.04c-0.46,1.17 -0.77,2.32 -1.34,3.3c-4.38,7.62 -8.87,15.18 -13.24,22.81c-4.3,7.49 -8.45,15.08 -12.78,22.56c-8.88,15.4 -17.85,30.75 -26.75,46.14c-7.19,12.45 -14.34,24.93 -21.5,37.4c-5.31,9.26 -10.58,18.53 -15.94,27.76c-0.46,0.79 -1.44,1.28 -2.18,1.93c-5.43,-3.21 -10.65,-6.29 -16.32,-9.64z" fill-rule = "evenodd" clip-rule = "evenodd" transform = "matrix(1.901298,0,0,1.901298,-1180.731,-723.6635)" vector-effect="non-scaling-stroke" pen = "1.901301,1.901301" />
<path style="fill:#FFFFFF;stroke:none; stroke-width:1" d="m1308.68,701.67c-2.37,-0.86 -4.55,-1.7 -6.76,-2.47c-2.56,-0.9 -5.12,-1.74 -7.69,-2.6c-2.02,-0.68 -2.78,-1.81 -2.46,-3.82c0.14,-0.83 0.4,-1.65 0.68,-2.44c3.54,-9.71 7.1,-19.41 10.66,-29.11c2.8,-7.63 5.65,-15.23 8.4,-22.88c1.77,-4.92 3.32,-9.92 5.1,-14.83c2.3,-6.35 4.76,-12.65 7.09,-18.99c3.34,-9.05 6.63,-18.12 9.94,-27.17c4.36,-11.93 8.73,-23.86 13.09,-35.79c2.39,-6.52 4.75,-13.04 7.14,-19.55c0.88,-2.38 1.83,-4.72 2.81,-7.21c1.73,-0.14 3.34,-0.28 5.11,-0.43c1.8,-4.88 3.57,-9.63 5.3,-14.39c2.73,-7.48 5.43,-14.97 8.13,-22.46c1.78,-4.94 3.48,-9.9 5.29,-14.82c2.15,-5.86 4.38,-11.69 6.61,-17.52c0.24,-0.61 0.68,-1.13 1.13,-1.85c3.17,0.9 6.27,1.6 8.57,4.7c-8.1,23.52 -17.41,46.71 -25.37,70.04c0.25,0.71 0.26,1.16 0.48,1.32c2.79,1.88 2.66,4.21 1.6,7.11c-5.25,14.31 -10.3,28.69 -15.49,43.02c-2.42,6.67 -5.08,13.24 -7.52,19.89c-3.32,9.05 -6.53,18.14 -9.79,27.2c-3.32,9.25 -6.65,18.5 -9.97,27.74c-2.01,5.58 -3.96,11.17 -5.99,16.73c-1.57,4.28 -3.26,8.52 -4.84,12.79c-1.99,5.38 -3.73,10.86 -5.99,16.11c-1.59,3.7 -2.11,7.88 -5.27,11.66z" fill-rule = "evenodd" clip-rule = "evenodd" transform = "matrix(1.9013,0,0,1.901299,-1180.732,-723.6638)" vector-effect="non-scaling-stroke" pen = "1.901302,1.901302" />
<path style="fill:#FFFFFF;stroke:none; stroke-width:1" d="m987.79,695.97c0.06,-0.86 0.05,-1.53 0.18,-2.16c0.4,-1.98 -0.49,-3.24 -2.13,-4.18c-3.53,-2.02 -7.05,-4.05 -10.57,-6.08c-13.05,-7.54 -26.1,-15.1 -39.16,-22.63c-12.78,-7.36 -25.58,-14.69 -38.35,-22.05c-13.65,-7.87 -27.3,-15.76 -40.95,-23.65c-1.32,-0.76 -2.63,-1.55 -3.92,-2.36c-2.3,-1.47 -2.63,-2.18 -2.05,-4.54c0.36,-1.48 0.78,-2.95 1.28,-4.4c0.67,-1.97 2.09,-2.41 4.01,-1.28c5.25,3.08 10.47,6.21 15.74,9.25c8.52,4.9 17.1,9.71 25.6,14.63c9.23,5.35 18.38,10.85 27.61,16.2c9.09,5.27 18.24,10.43 27.36,15.68c10.12,5.83 20.23,11.71 30.36,17.55c3.07,1.77 6.16,3.52 9.11,5.2c0.53,-0.13 0.93,-0.12 1.16,-0.31c3.13,-2.5 3.66,-2.62 6.67,-0.88c16.14,9.33 32.25,18.71 48.41,28.02c19.53,11.25 39.11,22.42 58.65,33.66c6.16,3.55 12.28,7.19 18.4,10.79c1.19,0.7 2.27,1.49 2.64,3.01c-2.98,5.07 -5.98,10.17 -8.98,15.27c-2.2,0.27 -3.73,-0.88 -5.31,-1.78c-7.37,-4.2 -14.73,-8.41 -22.08,-12.64c-22.9,-13.2 -45.8,-26.4 -68.69,-39.63c-9.98,-5.76 -19.93,-11.56 -29.88,-17.37c-1.74,-1.02 -3.39,-2.19 -5.13,-3.32z" fill-rule = "evenodd" clip-rule = "evenodd" transform = "matrix(1.901299,0,0,1.901298,-1180.731,-723.6636)" vector-effect="non-scaling-stroke" pen = "1.901301,1.901301" />
<path style="fill:#FFFFFF;stroke:none; stroke-width:1" d="m1284.57,693.48c-5.53,-0.9 -10.54,-1.67 -15.54,-2.55c-2.44,-0.43 -3.08,-1.38 -2.69,-3.98c0.59,-4.03 1.27,-8.04 1.98,-12.04c1.83,-10.35 3.74,-20.68 5.55,-31.03c1.05,-6 1.94,-12.03 2.89,-18.06c0.11,-0.66 0.11,-1.37 0.32,-2.01c1.14,-3.57 1.5,-7.28 2.09,-10.97c0.98,-6.01 2.38,-11.96 3.44,-17.95c1.12,-6.34 2.07,-12.71 3.12,-19.06c0.22,-1.34 0.52,-2.66 0.78,-3.98c0.41,-2.16 0.81,-4.31 1.19,-6.47c0.12,-0.67 0.1,-1.35 0.23,-2.03c0.98,-5.15 2,-10.3 2.99,-15.46c0.38,-2 0.67,-4.01 1.05,-6.02c0.5,-2.66 1.05,-5.3 1.58,-7.95c0.07,-0.33 0.2,-0.65 0.23,-0.99c0.77,-8.97 3.14,-17.68 4.46,-26.57c0.27,-1.85 0.47,-3.71 0.7,-5.55c0.19,-1.52 0.98,-2.45 2.54,-2.74c0.97,-0.17 1.92,-0.46 2.64,-0.64c0.37,-0.58 0.65,-0.84 0.7,-1.15c1.1,-6.51 2.11,-13.04 3.25,-19.54c0.94,-5.34 2.03,-10.64 3.02,-15.97c0.41,-2.17 0.7,-4.35 1.06,-6.53c0.31,-1.84 0.66,-3.67 0.97,-5.51c0.4,-2.33 0.78,-4.65 1.15,-6.98c0.08,-0.5 0.04,-1.02 0.14,-1.52c1.11,-5.64 2.14,-11.3 3.42,-16.9c0.44,-1.91 0.05,-4.15 1.98,-5.94c1.96,0.49 4.07,0.93 6.13,1.56c1.69,0.52 2.64,2.28 2.34,3.96c-1.2,6.66 -2.15,13.36 -3.35,20.01c-1.08,5.99 -2.36,11.95 -3.53,17.93c-0.26,1.33 -0.41,2.68 -0.65,4.02c-0.48,2.66 -1,5.31 -1.48,7.97c-0.3,1.67 -0.51,3.35 -0.78,5.02c-0.3,1.84 -0.61,3.67 -0.93,5.51c-0.42,2.5 -0.81,5.01 -1.29,7.5c-0.35,1.82 -0.8,3.63 -1.24,5.44c-0.78,3.24 -0.74,3.38 2.08,5.41c0.4,0.29 0.76,0.64 1.28,1.08c0.29,2.64 0.01,5.27 -0.67,7.93c-0.63,2.45 -0.97,4.98 -1.41,7.48c-0.15,0.83 -0.16,1.69 -0.3,2.52c-0.74,4.34 -1.41,8.7 -2.31,13c-0.76,3.64 -1.46,7.28 -1.99,10.97c-0.85,5.86 -2.2,11.66 -3.29,17.49c-0.9,4.83 -1.75,9.66 -2.58,14.5c-2.4,13.87 -4.79,27.74 -7.17,41.61c-1.71,10.02 -3.33,20.06 -5.08,30.07c-0.96,5.5 -2.16,10.95 -3.2,16.44c-0.28,1.49 -0.42,3.01 -0.63,4.52c-0.28,1.84 -0.56,3.68 -0.86,5.52c-0.44,2.67 -0.94,5.33 -1.35,8c-0.53,3.52 -1.49,6.89 -2.97,10.58z" fill-rule = "evenodd" clip-rule = "evenodd" transform = "matrix(1.901299,0,0,1.901298,-1180.731,-723.6636)" vector-effect="non-scaling-stroke" pen = "1.901301,1.901301" />
<path style="fill:#FFFFFF;stroke:none; stroke-width:1" d="m1240.75,494.42c1.18,-0.58 2.53,-1.24 4.12,-2.03c0.04,-2.53 0.11,-5.07 0.11,-7.59c-0.01,-26.31 -0.03,-52.61 -0.03,-78.92c0,-1.48 -0.4,-3.06 0.72,-4.51c2.72,-0.96 5.3,-0.06 7.78,1c0.74,0.32 1.27,1.49 1.57,2.38c0.26,0.76 0.06,1.68 0.06,2.52c-0.04,25.96 -0.08,51.93 -0.1,77.89c0,2.36 0.14,4.73 0.21,7.27c1.39,0.7 2.71,1.38 4.12,2.1c0.17,0.4 0.5,0.85 0.54,1.32c0.12,1.52 0.18,3.05 0.18,4.57c0,44.29 -0.01,88.59 -0.01,132.89c0,16.97 -0.01,33.94 -0.02,50.91c0,0.51 0.05,1.02 0.03,1.53c-0.11,3.45 -0.75,4 -4.31,3.97c-3.9,-0.04 -7.8,0.01 -11.7,0.04c-3.04,0.03 -4.01,-0.76 -4.08,-3.82c-0.1,-3.9 0.03,-7.8 0.04,-11.71c0.03,-42.77 0.05,-85.53 0.08,-128.3c0.01,-15.44 0.01,-30.89 0.04,-46.34c0.01,-1.67 -0.34,-3.39 0.66,-5.18z" fill-rule = "evenodd" clip-rule = "evenodd" transform = "matrix(1.901298,0,0,1.901297,-1180.732,-723.6631)" vector-effect="non-scaling-stroke" pen = "1.901301,1.9013" />
<path style="fill:#FFFFFF;stroke:none; stroke-width:1" d="m1181.98,505.33c4.31,-3.13 4.41,-3.57 3.16,-8.86c-0.62,-2.63 -0.98,-5.32 -1.44,-7.98c-0.11,-0.67 -0.1,-1.36 -0.24,-2.02c-1.13,-5.64 -2.3,-11.27 -3.42,-16.92c-0.29,-1.5 -0.42,-3.02 -0.68,-4.53c-0.41,-2.33 -0.88,-4.65 -1.34,-6.97c-0.09,-0.5 -0.28,-0.98 -0.37,-1.48c-0.98,-6.01 -1.94,-12.03 -2.93,-18.04c-0.25,-1.5 -0.57,-3 -0.83,-4.5c-0.4,-2.16 -0.79,-4.33 -1.16,-6.49c-0.14,-0.83 -0.15,-1.69 -0.3,-2.52c-1.01,-5.32 -2.08,-10.64 -3.06,-15.96c-0.73,-3.96 -1.21,-7.96 -1.69,-11.96c2.82,-1.52 5.54,-0.87 8.19,-0.73c1.1,0.06 1.82,0.9 2.09,1.96c0.41,1.64 0.84,3.29 1.06,4.96c0.42,3.36 0.62,6.76 1.87,9.97c0.06,0.15 0.1,0.33 0.12,0.5c0.93,5.68 1.85,11.36 2.76,17.04c0.06,0.33 0.04,0.68 0.11,1.01c1.13,5.81 2.27,11.61 3.41,17.42c0.06,0.33 0.2,0.65 0.26,0.98c0.87,5.52 1.67,11.06 2.6,16.56c1.09,6.35 2.31,12.67 3.44,19.02c0.62,3.5 1.25,7.01 1.71,10.55c0.3,2.39 1.31,3.77 3.84,3.79c0.48,0.01 0.94,0.3 1.44,0.47c0.24,0.47 0.6,0.89 0.68,1.35c0.98,5.68 1.86,11.38 2.86,17.05c1.05,6.01 2.24,12 3.3,18c1.03,5.83 1.98,11.68 2.96,17.53c0.03,0.16 0.02,0.34 0.05,0.51c1.12,5.81 2.27,11.62 3.35,17.44c0.38,1.99 0.48,4.04 0.85,6.03c1.16,6.16 2.39,12.3 3.59,18.45c0.09,0.5 0.22,1 0.3,1.49c0.96,5.85 1.84,11.7 2.87,17.54c1.09,6.17 2.32,12.31 3.46,18.47c0.74,3.99 1.45,7.99 2.12,11.99c1.62,9.53 3.19,19.07 4.81,28.6c0.65,3.84 1.42,7.66 2.08,11.51c0.48,2.77 -0.17,3.91 -2.82,4.41c-4.98,0.94 -9.99,1.71 -15.27,2.6c-0.42,-0.88 -1.03,-1.71 -1.23,-2.62c-0.95,-4.12 -1.89,-8.24 -2.44,-12.47c-0.79,-6.03 -2.29,-11.95 -3.43,-17.94c-0.81,-4.33 -1.52,-8.67 -2.27,-13.01c-3.13,-18.21 -6.27,-36.43 -9.39,-54.64c-1.72,-10.03 -3.34,-20.07 -5.13,-30.08c-1.75,-9.83 -3.71,-19.63 -5.47,-29.46c-1.08,-6 -1.93,-12.03 -2.93,-18.05c-0.27,-1.67 -0.71,-3.31 -1.09,-4.96c-0.39,-1.65 -0.95,-3.27 -0.43,-4.97z" fill-rule = "evenodd" clip-rule = "evenodd" transform = "matrix(1.901298,0,0,1.901299,-1180.731,-723.6639)" vector-effect="non-scaling-stroke" pen = "1.901301,1.901301" />
<path style="fill:#FFFFFF;stroke:none; stroke-width:1" d="m1018.44,634.85c1.69,-0.87 3,-1.55 4.42,-2.28c0.8,0.58 1.49,1.05 2.12,1.58c13.11,11 26.23,22.02 39.33,33.04c9.47,7.96 18.91,15.98 28.41,23.91c15.88,13.27 31.76,26.52 47.68,39.73c4,3.32 4.73,4.27 0.3,8.16c-2.01,1.77 -3.51,4.12 -5.2,6.24c-1.16,1.44 -2.19,3.01 -4.01,4.16c-1.12,-0.74 -2.31,-1.36 -3.31,-2.2c-11.82,-9.92 -23.6,-19.89 -35.41,-29.82c-15.45,-12.98 -30.92,-25.92 -46.39,-38.87c-10.52,-8.82 -21.06,-17.62 -31.6,-26.44c-0.52,-0.43 -1.03,-0.87 -1.53,-1.34c-1.82,-1.69 -1.85,-1.84 -0.87,-4.36c0.18,-0.46 0.37,-0.92 0.67,-1.68c-2.04,-2.61 -4.76,-4.64 -7.3,-6.8c-6.85,-5.82 -13.83,-11.47 -20.72,-17.24c-14.17,-11.85 -28.31,-23.73 -42.47,-35.61c-13.5,-11.34 -27,-22.7 -40.51,-34.03c-5.32,-4.47 -10.67,-8.9 -16.01,-13.35c-0.66,-0.55 -1.34,-1.06 -1.96,-1.64c-1.48,-1.39 -1.74,-2.4 -0.86,-4.05c0.8,-1.48 1.72,-2.93 2.71,-4.3c1.04,-1.43 2.47,-1.6 3.97,-0.4c2.91,2.34 5.72,4.78 8.58,7.17c7.41,6.2 14.83,12.39 22.23,18.6c8.17,6.87 16.32,13.78 24.49,20.65c15.84,13.31 31.67,26.62 47.52,39.91c7.67,6.42 15.36,12.82 23.05,19.22c0.77,0.65 1.6,1.23 2.64,2.03z" fill-rule = "evenodd" clip-rule = "evenodd" transform = "matrix(1.901299,0,0,1.901299,-1180.732,-723.6637)" vector-effect="non-scaling-stroke" pen = "1.901302,1.901302" />
<path style="fill:#FFFFFF;stroke:none; stroke-width:1" d="m1140.47,520.23c1.82,0 3.31,0 4.77,0c2.65,3.6 3.41,7.85 4.88,11.76c5.31,14.1 10.34,28.31 15.45,42.48c3.96,10.98 7.82,22 11.84,32.96c3.26,8.87 6.79,17.65 10.02,26.54c4.1,11.3 7.98,22.68 12.04,34c2.57,7.18 5.28,14.3 7.95,21.44c0.06,0.16 0.14,0.31 0.19,0.47c1.8,4.69 1.19,5.73 -3.62,7.27c-3.37,1.08 -6.63,2.52 -9.96,3.79c-2.4,0.92 -3.25,0.63 -4.34,-1.85c-1.22,-2.78 -2.29,-5.64 -3.34,-8.49c-4.33,-11.73 -8.69,-23.45 -12.94,-35.21c-4.83,-13.38 -9.53,-26.81 -14.35,-40.19c-2.58,-7.16 -5.34,-14.26 -7.94,-21.41c-2.48,-6.82 -4.82,-13.69 -7.3,-20.52c-2.42,-6.68 -4.97,-13.31 -7.42,-19.98c-2.53,-6.83 -5,-13.68 -7.51,-20.52c-0.7,-1.89 -0.76,-3.64 0.9,-5.11c1.7,-1.5 1.37,-3.25 0.68,-5.12c-1.88,-5.08 -3.68,-10.2 -5.53,-15.3c-4.09,-11.28 -8.18,-22.56 -12.3,-33.84c-4.59,-12.54 -9.24,-25.04 -13.82,-37.58c-3.38,-9.23 -6.69,-18.49 -10.02,-27.74c-0.28,-0.79 -0.48,-1.63 -0.59,-2.46c-0.19,-1.37 0.5,-2.36 1.82,-2.6c1.34,-0.23 2.69,-0.37 4.04,-0.5c2.87,-0.28 3.54,0 4.62,2.8c1.95,5.05 3.69,10.19 5.59,15.27c3.3,8.88 6.66,17.74 9.96,26.61c1.7,4.6 3.32,9.22 4.98,13.83c3.08,8.59 6.18,17.18 9.26,25.77c2.97,8.3 5.92,16.6 8.89,24.89c0.97,2.7 1.98,5.39 3.13,8.54z" fill-rule = "evenodd" clip-rule = "evenodd" transform = "matrix(1.901298,0,0,1.9013,-1180.731,-723.6641)" vector-effect="non-scaling-stroke" pen = "1.901301,1.901302" />
<path style="fill:#FFFFFF;stroke:none; stroke-width:1" d="m936.38,470.47c2.52,-3.83 3.41,-4.59 7.37,-6.35c2.04,0.85 3.32,2.71 4.7,4.37c10.24,12.22 20.42,24.49 30.66,36.7c18.53,22.09 37.11,44.15 55.65,66.24c4.36,5.2 8.61,10.48 12.95,15.69c1.18,1.42 2.5,2.72 3.63,3.95c5.12,-1.39 5.13,-1.4 8.36,2.48c9.12,10.94 18.19,21.93 27.35,32.84c9.05,10.79 18.21,21.48 27.26,32.26c7.97,9.48 15.85,19.03 23.81,28.51c6,7.14 12.09,14.21 18.09,21.35c2.38,2.84 5.02,5.5 6.71,8.81c-1.71,2.62 -7.12,7.57 -13.77,12.68c-1.79,0.01 -2.55,-1.42 -3.52,-2.57c-8.03,-9.65 -16.07,-19.3 -24.14,-28.92c-13.73,-16.37 -27.48,-32.73 -41.23,-49.09c-11.57,-13.76 -23.16,-27.5 -34.75,-41.24c-0.32,-0.39 -0.68,-0.75 -1.01,-1.15c-1.16,-1.41 -1.78,-2.9 -0.69,-4.64c1.2,-1.92 0.52,-3.45 -0.83,-5.03c-6.7,-7.89 -13.31,-15.84 -19.97,-23.76c-10.26,-12.21 -20.52,-24.41 -30.79,-36.6c-8.96,-10.64 -17.93,-21.27 -26.88,-31.92c-7.53,-8.96 -15.03,-17.95 -22.54,-26.93c-2.16,-2.58 -4.33,-5.16 -6.44,-7.67z" fill-rule = "evenodd" clip-rule = "evenodd" transform = "matrix(1.901298,0,0,1.901299,-1180.731,-723.6638)" vector-effect="non-scaling-stroke" pen = "1.901301,1.901302" />
<path style="fill:#FFFFFF;stroke:none; stroke-width:1" d="m1008.8,425.61c2.12,-0.88 3.96,-1.72 5.86,-2.41c1.62,-0.6 2.55,-0.3 3.49,1.15c1.3,1.98 2.5,4.04 3.68,6.1c11.25,19.52 22.47,39.06 33.75,58.57c10.77,18.62 21.6,37.19 32.39,55.8c1.02,1.76 1.83,3.64 2.83,5.4c1.34,2.36 1.97,2.5 4.9,1.34c0.3,-0.12 0.65,-0.09 1.15,-0.15c0.55,0.75 1.22,1.52 1.72,2.38c28.7,49.73 57.4,99.45 86.07,149.19c0.24,0.4 0.21,0.95 0.36,1.71c-5.18,3.09 -10.37,6.17 -15.46,9.21c-1.79,-0.01 -2.46,-1.24 -3.13,-2.41c-2.78,-4.85 -5.51,-9.74 -8.32,-14.58c-7.23,-12.45 -14.53,-24.86 -21.74,-37.32c-7.64,-13.2 -15.21,-26.44 -22.83,-39.65c-3.98,-6.89 -8.04,-13.72 -12,-20.61c-6.25,-10.87 -12.45,-21.77 -18.71,-32.63c-1.04,-1.8 -1.36,-3.4 0.28,-5.05c1.28,-1.29 1.01,-2.67 0.13,-4.16c-4.89,-8.31 -9.75,-16.64 -14.58,-24.98c-8.82,-15.26 -17.61,-30.53 -26.4,-45.8c-8.87,-15.42 -17.71,-30.85 -26.58,-46.27c-1.94,-3.37 -3.95,-6.71 -5.9,-10.08c-0.83,-1.43 -0.79,-1.46 -0.96,-4.74z" fill-rule = "evenodd" clip-rule = "evenodd" transform = "matrix(1.901298,0,0,1.901299,-1180.731,-723.6639)" vector-effect="non-scaling-stroke" pen = "1.9013,1.901302" />
</g>
</g>
</g>
</g>
</svg>
